
<svg width="465" height="480" xmlns="http://www.w3.org/2000/svg" version="1.1">

 <g>
  <title>Layer 1</title>
  <path id="svg_1" fill-rule="evenodd" fill="#ff6419" d="m64.75,73.234l-20.75,21.124l0,70.762c0,38.919 0.337,70.901 0.75,71.071c0.413,0.17 9.853,0.178 20.98,0.019l20.23,-0.29l0.27,-20.71l0.27,-20.71l24.437,-0.268c19.913,-0.219 25.3,0.018 29.095,1.279c12.591,4.182 18.213,13.623 16.373,27.494c-0.837,6.312 -5.538,13.703 -10.132,15.93c-1.775,0.861 -3.238,1.858 -3.25,2.216c-0.013,0.358 1.528,1.566 3.423,2.685c5.285,3.118 7.247,8.074 8.491,21.444c0.597,6.405 1.529,12.817 2.074,14.248c2.225,5.853 1.602,6.597 -5.261,6.27l-6.25,-0.298l-1.665,-13.5c-2.159,-17.51 -2.435,-18.441 -6.512,-22.021l-3.445,-3.025l-17.689,0.273l-17.689,0.273l-0.272,19.25l-0.271,19.25l-5.979,0l-5.978,0l0,-19.5l0,-19.5l-21,0l-21,0l0,90.5l0,90.5l165.615,0l165.614,0l20.88,-20.92l20.879,-20.921l0.012,-164.329c0.006,-90.382 0.009,-165.567 0.006,-167.08l-0.006,-2.75l-165.75,0.055l-165.75,0.055l-20.75,21.124m125.527,120.877c-7.586,2.622 -13.373,7.389 -16.294,13.423c-2.886,5.962 -2.601,18.419 0.52,22.713c2.486,3.421 10.431,8.693 14.75,9.788c1.786,0.453 9.322,2.347 16.747,4.209c19.359,4.855 24,8.256 24,17.587c0,5.379 -3.02,10.285 -8.099,13.158c-3.872,2.19 -5.603,2.49 -14.401,2.5c-8.909,0.01 -10.6,-0.288 -15.5,-2.73c-6.516,-3.246 -10.992,-8.939 -11.191,-14.23c-0.153,-4.05 -1.778,-4.891 -8.404,-4.349l-3.905,0.32l0.336,4.5c0.742,9.93 9.141,20.119 20.164,24.462c10.132,3.992 29.195,2.951 39.076,-2.135c9.496,-4.887 13.924,-12.093 13.924,-22.662c0,-6.297 -0.387,-7.883 -2.881,-11.816c-4.877,-7.691 -11.232,-11.097 -27.619,-14.806c-5.5,-1.245 -12.809,-3.15 -16.242,-4.232c-12.661,-3.993 -16.011,-14.346 -7.343,-22.693c3.796,-3.656 8.358,-5.118 15.97,-5.118c11.942,0 18.375,4.16 22.122,14.305c1.536,4.156 1.596,4.195 6.521,4.195c4.41,0 5.008,-0.257 5.295,-2.273c0.562,-3.965 -2.951,-12.411 -6.983,-16.785c-5.767,-6.256 -12.235,-8.679 -24.34,-9.119c-8.281,-0.3 -11.069,0.007 -16.223,1.788m90.883,3.139c-0.73,1.787 -1.74,4.262 -2.244,5.5c-0.504,1.238 -1.349,3.262 -1.879,4.5c-0.53,1.238 -2.584,6.525 -4.565,11.75c-3.947,10.411 -4.681,12.281 -6.277,16c-1.732,4.035 -17.889,46.287 -18.642,48.75c-0.66,2.158 -0.445,2.25 5.258,2.25c5.791,0 5.978,-0.085 7.169,-3.25c0.672,-1.788 1.583,-4.15 2.023,-5.25c1.252,-3.122 4.721,-12.608 6.126,-16.75l1.273,-3.75l18.676,0c20.456,0 19.63,-0.247 21.78,6.5c0.701,2.2 1.658,4.9 2.128,6c0.469,1.1 2.054,5.262 3.521,9.25l2.668,7.25l6.412,0c3.527,0 6.413,-0.222 6.413,-0.493c0,-0.271 -1.538,-4.434 -3.417,-9.25c-1.879,-4.816 -7.769,-20.007 -13.089,-33.757c-5.32,-13.75 -10.045,-25.9 -10.5,-27c-0.455,-1.1 -2.516,-6.387 -4.579,-11.75l-3.753,-9.75l-6.587,0c-6.492,0 -6.606,0.047 -7.915,3.25m-182.531,7.541c-0.992,1.606 -0.579,30.122 0.446,30.755c0.564,0.349 8.484,0.574 17.6,0.501c14.21,-0.114 17.112,-0.408 20.344,-2.057c9.843,-5.021 10.482,-21.376 1.083,-27.703c-3.224,-2.17 -4.31,-2.287 -21.191,-2.287c-9.786,0 -18.013,0.356 -18.282,0.791m188.437,4.459c-0.489,1.238 -1.83,4.838 -2.978,8c-4.622,12.729 -6.32,17.342 -7.085,19.25c-2.405,6.001 -3.227,8.61 -2.836,9c0.688,0.689 27.749,0.918 28.425,0.241c0.596,-0.595 -0.863,-6.29 -2.622,-10.241c-0.49,-1.1 -3.008,-7.963 -5.597,-15.25c-2.588,-7.287 -5.091,-13.25 -5.561,-13.25c-0.47,0 -1.256,1.012 -1.746,2.25"/>
  <text xml:space="preserve" text-anchor="start" font-family="'Arial'" font-size="80" id="svg_2" y="384.99998" x="74.16499" stroke-width="0" stroke="#000" fill="#ffffff">HELPER</text>
  <rect stroke="#000" stroke-width="0" id="svg_3" height="6.5" width="41" y="351" x="43.165" fill="#ffffff"/>
 </g>
</svg>